<svg height="512pt" viewBox="-61 0 512 512" width="512pt" xmlns="http://www.w3.org/2000/svg"><path d="m282.199219 190.574219 27.996093-104.363281c.78125-2.914063-.964843-5.9375-3.882812-6.71875l-74.300781-19.882813v130.964844zm0 0" fill="#368c0e"/><path d="m278.023438 97.761719-43.34375-11.601563c-.957032-.253906-1.929688-.019531-2.667969.539063v72.371093c2.015625.113282 4.046875.429688 6.074219.96875 10.503906 2.8125 18.164062 10.917969 20.890624 20.667969l21.234376-79.160156c.441406-1.640625-.542969-3.34375-2.1875-3.785156zm0 0" fill="#5dc647"/><path d="m260.003906 190.574219c.917969-13.820313-8.015625-26.8125-21.917968-30.535157-2.027344-.539062-4.058594-.855468-6.070313-.96875v31.503907zm0 0" fill="#fff"/><path d="m246.066406 137.808594c-1.96875 0-3.910156-.808594-5.308594-2.199219-1.390624-1.398437-2.191406-3.332031-2.191406-5.308594 0-1.972656.800782-3.902343 2.191406-5.300781 1.398438-1.402344 3.328126-2.199219 5.308594-2.199219 1.96875 0 3.898438.796875 5.300782 2.199219 1.398437 1.398438 2.199218 3.328125 2.199218 5.300781 0 1.976563-.800781 3.910157-2.199218 5.308594-1.402344 1.390625-3.332032 2.199219-5.300782 2.199219zm0 0" fill="#fff"/><path d="m132.566406 61.5c1.609375 0 3.105469.855469 3.902344 2.238281l73.316406 126.835938h23.226563v-158.515625c0-3.015625-2.46875-5.484375-5.488281-5.484375h-90.0625c-3.019532 0-5.492188 2.46875-5.492188 5.484375v29.480468c.199219-.023437.398438-.039062.597656-.039062zm0 0" fill="#2e720a"/><path d="m172.347656 123.808594c3.167969-1.152344 6.578125-1.792969 10.144532-1.792969 10.871093 0 20.371093 5.847656 25.535156 14.558594v-81.949219c0-1.699219-1.394532-3.089844-3.09375-3.089844h-44.878906c-1.699219 0-3.09375 1.390625-3.09375 3.089844v42.5625zm0 0" fill="#5dc647"/><path d="m201.539062 174.3125 6.484376 11.21875v-18.851562c-1.714844 2.898437-3.914063 5.476562-6.484376 7.632812zm0 0" fill="#5dc647"/><path d="m212.144531 151.632812c0-16.355468-13.273437-29.617187-29.652343-29.617187-3.921876 0-7.664063.765625-11.09375 2.148437l29.359374 50.792969c6.929688-5.421875 11.386719-13.847656 11.386719-23.324219zm0 0" fill="#fff"/><path d="m182.496094 98.730469c-1.980469 0-3.910156-.800781-5.308594-2.199219-1.390625-1.390625-2.191406-3.332031-2.191406-5.300781s.800781-3.910157 2.191406-5.300781c1.398438-1.398438 3.328125-2.199219 5.308594-2.199219 1.96875 0 3.898437.800781 5.300781 2.199219 1.390625 1.390624 2.199219 3.320312 2.199219 5.300781s-.808594 3.910156-2.199219 5.300781c-1.402344 1.398438-3.332031 2.199219-5.300781 2.199219zm0 0" fill="#fff"/><path d="m94.265625 190.574219h116.671875l-73.601562-127.335938c-1.511719-2.613281-4.886719-3.515625-7.5-2.007812l-77.996094 44.980469c-2.617188 1.507812-3.519532 4.878906-2.007813 7.488281zm0 0" fill="#368c0e"/><path d="m138.613281 166.375c9.417969-5.429688 20.570313-5.109375 29.402344-.144531l-41.023437-70.96875c-.851563-1.472657-2.753907-1.980469-4.226563-1.132813l-38.863281 22.414063c-1.472656.847656-1.984375 2.75-1.132813 4.222656l40.351563 69.808594h.707031c.484375-9.707031 5.730469-18.980469 14.785156-24.199219zm0 0" fill="#5dc647"/><path d="m183.058594 190.574219c-.222656-4.558594-1.496094-9.136719-3.9375-13.359375-8.1875-14.167969-26.320313-19.019532-40.507813-10.839844-9.054687 5.21875-14.300781 14.492188-14.785156 24.199219zm0 0" fill="#fff"/><path d="m123.207031 147.210938c-1.980469 0-3.910156-.800782-5.3125-2.191407-1.386719-1.398437-2.1875-3.328125-2.1875-5.308593 0-1.972657.800781-3.902344 2.1875-5.300782 1.402344-1.398437 3.332031-2.199218 5.3125-2.199218 1.96875 0 3.910157.800781 5.300781 2.199218 1.398438 1.398438 2.199219 3.328125 2.199219 5.300782 0 1.980468-.800781 3.910156-2.199219 5.308593-1.390624 1.390625-3.332031 2.191407-5.300781 2.191407zm0 0" fill="#fff"/><path d="m61.976562 64.828125c-2.472656 0-4.625-1.6875-5.210937-4.085937-4.128906-16.839844-6.292969-19-23.152344-23.125-2.402343-.585938-4.089843-2.734376-4.089843-5.203126s1.6875-4.617187 4.089843-5.203124c16.859375-4.125 19.023438-6.289063 23.152344-23.125.585937-2.398438 2.738281-4.085938 5.210937-4.085938 2.46875 0 4.621094 1.6875 5.210938 4.085938 4.125 16.835937 6.289062 19 23.148438 23.125 2.402343.585937 4.089843 2.734374 4.089843 5.203124s-1.6875 4.617188-4.089843 5.203126c-16.859376 4.125-19.023438 6.285156-23.148438 23.125-.589844 2.398437-2.742188 4.085937-5.210938 4.085937zm0 0" fill="#ffc502"/><path d="m357.917969 161.148438c-2.375 0-4.441407-1.621094-5.007813-3.925782-3.96875-16.1875-6.050781-18.265625-22.253906-22.230468-2.308594-.5625-3.929688-2.628907-3.929688-5 0-2.375 1.621094-4.4375 3.929688-5.003907 16.207031-3.964843 18.285156-6.042969 22.253906-22.226562.566406-2.308594 2.632813-3.925781 5.007813-3.925781s4.441406 1.621093 5.011719 3.925781c3.964843 16.183593 6.046874 18.261719 22.25 22.226562 2.308593.566407 3.933593 2.628907 3.933593 5.003907 0 2.371093-1.625 4.4375-3.933593 5-16.203126 3.964843-18.285157 6.042968-22.25 22.230468-.566407 2.304688-2.636719 3.925782-5.011719 3.925782zm0 0" fill="#ffc502"/><path d="m18.34375 241.09375v265.753906c0 2.835938 2.316406 5.152344 5.15625 5.152344h312.484375c2.835937 0 5.15625-2.316406 5.15625-5.152344v-265.753906zm0 0" fill="#c6a07d"/><path d="m359.484375 236.941406c0 2.832032-2.324219 5.148438-5.160156 5.148438h-349.167969c-2.835938 0-5.15625-2.316406-5.15625-5.148438v-42.21875c0-2.832031 2.320312-5.148437 5.15625-5.148437h349.167969c2.835937 0 5.160156 2.316406 5.160156 5.148437zm0 0" fill="#b2762f"/><path d="m179.742188 419.535156c-2.121094 0-4.246094-.808594-5.867188-2.425781l-69.523438-69.445313c-16.015624-15.992187-16.015624-42.019531 0-58.015624 7.753907-7.746094 18.070313-12.015626 29.042969-12.015626 10.96875 0 21.28125 4.269532 29.039063 12.015626l17.308594 17.289062 17.308593-17.289062c7.757813-7.746094 18.070313-12.015626 29.039063-12.015626 10.972656 0 21.289062 4.269532 29.046875 12.015626 16.011719 15.996093 16.011719 42.023437 0 58.015624l-69.527344 69.445313c-1.621094 1.617187-3.746094 2.425781-5.867187 2.425781zm0 0" fill="#c0272d"/><g fill="#242b30"><path d="m149.691406 340.992188c-4.140625 0-7.5-3.359376-7.5-7.5v-7.0625c0-4.144532 3.359375-7.5 7.5-7.5s7.5 3.355468 7.5 7.5v7.0625c0 4.140624-3.359375 7.5-7.5 7.5zm0 0"/><path d="m209.789062 340.992188c-4.140624 0-7.5-3.359376-7.5-7.5v-7.0625c0-4.144532 3.359376-7.5 7.5-7.5 4.144532 0 7.5 3.355468 7.5 7.5v7.0625c0 4.140624-3.355468 7.5-7.5 7.5zm0 0"/><path d="m179.742188 380.425781c-11.933594 0-21.640626-9.703125-21.640626-21.625 0-4.144531 3.359376-7.5 7.5-7.5 4.140626 0 7.5 3.355469 7.5 7.5 0 3.652344 2.976563 6.625 6.640626 6.625 3.664062 0 6.640624-2.972656 6.640624-6.625 0-4.144531 3.359376-7.5 7.5-7.5 4.144532 0 7.5 3.355469 7.5 7.5 0 11.921875-9.707031 21.625-21.640624 21.625zm0 0"/></g><path d="m257.699219 461.265625c0 8.390625-6.808594 15.195313-15.210938 15.195313h-125.492187c-8.402344 0-15.210938-6.804688-15.210938-15.195313s6.808594-15.195313 15.210938-15.195313h125.492187c8.402344 0 15.210938 6.804688 15.210938 15.195313zm0 0" fill="#fff"/></svg>