<svg height="480pt" viewBox="0 -5 480 480" width="480pt" xmlns="http://www.w3.org/2000/svg"><path d="m136.097656 46.242188c-6.238281-.957032-12.320312-1.917969-18.320312-3.039063l8.800781 113.359375.175781-.253906 28.335938-107.664063c-6.390625-.761719-12.808594-1.488281-18.992188-2.402343zm0 0" fill="#ff9811"/><path d="m197.296875 52.402344c-1.757813-.078125-3.4375-.238282-5.199219-.320313-12.703125-.796875-24.96875-2.015625-37.007812-3.4375l-28.335938 107.664063 70.785156-103.265625zm0 0" fill="#ffa127"/><path d="m74.851562 33.546875-28.097656 106.761719 67.023438-97.824219c-13.679688-2.578125-26.664063-5.585937-38.925782-8.9375zm0 0" fill="#ffd217"/><path d="m42.816406 23.363281c-1.839844-.71875-3.679687-1.359375-5.519531-2.160156l9.28125 119.359375.175781-.253906 28.097656-106.761719c-11.34375-3.09375-22.082031-6.496094-32.035156-10.183594zm0 0" fill="#ffcd00"/><path d="m366.339844 42.402344 67.101562 97.90625-28.101562-106.785156c-12.296875 3.328124-25.242188 6.335937-39 8.878906zm0 0" fill="#ff3051"/><path d="m442.898438 21.285156c-3.519532 1.4375-7.121094 2.796875-10.800782 4.078125-8.421875 2.9375-17.414062 5.601563-26.757812 8.160157l28.101562 106.785156.175782.253906zm0 0" fill="#ff4361"/><path d="m288.097656 52.082031c-1.757812.082031-3.4375.242188-5.199218.320313l-.238282.640625 70.78125 103.265625-28.335937-107.679688c-12.03125 1.429688-24.296875 2.65625-37.007813 3.453125zm0 0" fill="#2488ff"/><path d="m362.417969 43.125c-4.078125.796875-8.238281 1.519531-12.480469 2.160156-8.0625 1.277344-16.421875 2.335938-24.800781 3.34375l28.335937 107.679688.175782.253906zm0 0" fill="#3893ff"/><path d="m282.660156 53.042969-.402344-.640625c-13.757812.800781-27.757812 1.199218-42.160156 1.199218v119.777344l.082032.222656zm0 0" fill="#8ada50"/><path d="m197.9375 52.402344-.398438.640625 42.558594 120.335937v-119.777344c-14.398437 0-28.398437-.398437-42.160156-1.199218zm0 0" fill="#7ed63e"/><path d="m88.097656 469.601562c-1.015625.003907-2.023437-.1875-2.96875-.566406-4.105468-1.636718-6.101562-6.296875-4.460937-10.398437l9.597656-24.050781c2.546875-6.355469.765625-13.625-4.429687-18.085938l-15.058594-12.914062c-8.371094-7.171876-12.730469-17.964844-11.6875-28.9375 1.042968-10.972657 7.355468-20.753907 16.929687-26.222657 4.308594-2.457031 7.402344-6.597656 8.542969-11.425781 1.140625-4.832031.226562-9.917969-2.527344-14.042969l-9.890625-14.84375c-5.257812-7.878906-8.058593-17.144531-8.046875-26.621093v-11.890626c0-4.417968 3.582032-8 8-8 4.417969 0 8 3.582032 8 8v11.890626c-.007812 6.320312 1.863282 12.496093 5.375 17.75l9.890625 14.839843c5.210938 7.820313 6.941407 17.449219 4.78125 26.59375-2.160156 9.140625-8.015625 16.980469-16.175781 21.640625-5.050781 2.886719-8.382812 8.050782-8.933594 13.84375-.546875 5.792969 1.753906 11.492188 6.175782 15.273438l15.054687 12.921875c10.398437 8.914062 13.96875 23.460937 8.878906 36.175781l-9.597656 24.039062c-1.21875 3.046876-4.167969 5.039063-7.449219 5.03125zm0 0" fill="#ff9811"/><path d="m197.296875 52.402344.242187.640625.398438-.640625zm0 0" fill="#ffcd00"/><path d="m282.257812 52.402344.402344.640625.238282-.640625zm0 0" fill="#ffcd00"/><path d="m392.097656 469.601562c-3.273437.003907-6.21875-1.992187-7.429687-5.03125l-9.601563-24.046874c-5.085937-12.71875-1.511718-27.261719 8.886719-36.175782l15.042969-12.90625c4.421875-3.78125 6.730468-9.480468 6.183594-15.277344-.550782-5.792968-3.882813-10.960937-8.9375-13.847656-8.15625-4.660156-14.015626-12.5-16.175782-21.640625-2.160156-9.144531-.425781-18.773437 4.785156-26.59375l9.886719-14.839843c3.507813-5.253907 5.375-11.433594 5.359375-17.75v-11.890626c0-4.417968 3.582032-8 8-8 4.417969 0 8 3.582032 8 8v11.890626c.007813 9.476562-2.796875 18.742187-8.0625 26.621093l-9.890625 14.84375c-2.75 4.125-3.667969 9.210938-2.527343 14.042969 1.140624 4.828125 4.234374 8.96875 8.546874 11.425781 9.585938 5.46875 15.910157 15.257813 16.949219 26.242188 1.042969 10.984375-3.332031 21.789062-11.71875 28.960937l-15.039062 12.894532c-5.199219 4.457031-6.984375 11.730468-4.441407 18.085937l9.601563 24.058594c1.640625 4.105469-.359375 8.761719-4.464844 10.398437-.941406.367188-1.941406.546875-2.953125.535156zm0 0" fill="#ff9811"/><path d="m232.097656 469.601562c-3.882812 0-7.199218-2.792968-7.871094-6.613281l-6.953124-39.511719c-6.078126-17.222656 1.644531-36.269531 18-44.394531 4.8125-2.402343 8.46875-6.621093 10.164062-11.722656s1.292969-10.671875-1.125-15.476563l-11.367188-22.742187c-1.972656-3.957031-.371093-8.761719 3.585938-10.738281 3.953125-1.972656 8.761719-.371094 10.734375 3.585937l11.359375 22.742188c8.929688 17.902343 1.683594 39.65625-16.199219 48.625-9.28125 4.613281-13.558593 15.503906-9.894531 25.199219.171875.464843.300781.945312.390625 1.433593l7.0625 40.191407c.765625 4.351562-2.140625 8.5-6.492187 9.261718-.460938.09375-.925782.148438-1.394532.160156zm0 0" fill="#ff9811"/><path d="m333.753906 271.945312c-3.136718-3.03125-8.128906-2.988281-11.214844.097657-3.085937 3.085937-3.128906 8.078125-.097656 11.214843l7.03125 7.035157c6.246094 6.246093 6.246094 16.375 0 22.621093l-7.03125 7.03125c-2.078125 2.011719-2.914062 4.984376-2.179687 7.78125.730469 2.796876 2.914062 4.980469 5.710937 5.714844 2.796875.730469 5.773438-.101562 7.78125-2.183594l7.03125-7.03125c12.492188-12.496093 12.492188-32.75 0-45.246093zm0 0" fill="#a25bcd"/><path d="m461.753906 351.945312c-3.136718-3.03125-8.128906-2.988281-11.214844.097657-3.085937 3.085937-3.128906 8.078125-.097656 11.214843l7.03125 7.035157c6.246094 6.246093 6.246094 16.375 0 22.621093l-7.03125 7.03125c-2.078125 2.011719-2.914062 4.984376-2.179687 7.78125.730469 2.796876 2.914062 4.980469 5.710937 5.714844 2.796875.730469 5.773438-.101562 7.78125-2.183594l7.03125-7.03125c12.492188-12.496093 12.492188-32.75 0-45.246093zm0 0" fill="#ffcd00"/><path d="m323.816406 411.257812c3.035156-3.136718 2.992188-8.128906-.09375-11.214843-3.085937-3.085938-8.078125-3.128907-11.214844-.097657l-7.035156 7.035157c-12.492187 12.496093-12.492187 32.75 0 45.246093l7.035156 7.03125c3.136719 3.03125 8.128907 2.988282 11.214844-.097656 3.085938-3.085937 3.128906-8.074218.09375-11.214844l-7.03125-7.03125c-6.246094-6.246093-6.246094-16.375 0-22.621093zm0 0" fill="#ffcd00"/><path d="m171.816406 371.257812c3.035156-3.136718 2.992188-8.128906-.09375-11.214843-3.085937-3.085938-8.078125-3.128907-11.214844-.097657l-7.035156 7.035157c-12.492187 12.496093-12.492187 32.75 0 45.246093l7.035156 7.03125c3.136719 3.03125 8.128907 2.988282 11.214844-.097656 3.085938-3.085937 3.128906-8.074218.09375-11.214844l-7.03125-7.03125c-6.246094-6.246093-6.246094-16.375 0-22.621093zm0 0" fill="#a25bcd"/><path d="m240.097656 61.601562c-14.480468 0-28.800781-.40625-42.625-1.214843l-5.765625-.3125c-19.128906-1.183594-38.199219-3.199219-56.800781-5.917969-6.398438-.984375-12.535156-1.953125-18.617188-3.082031l-3.871093-.671875c-24.632813-4.480469-48.84375-11.019532-72.382813-19.542969l-1.898437-.726563c-1.34375-.496093-2.679688-1.007812-4-1.601562-10.125-3.789062-19.972657-8.277344-29.476563-13.433594-3.730468-2.1875-5.042968-6.941406-2.96875-10.734375 2.074219-3.792969 6.785156-5.25 10.640625-3.296875 8.96875 4.847656 18.257813 9.078125 27.804688 12.65625 1.449219.617188 2.539062 1.03125 3.640625 1.441406l1.953125.742188c22.628906 8.167969 45.898437 14.429688 69.566406 18.722656l3.921875.703125c5.976562 1.101563 12 2.0625 18.128906 3.007813 18.078125 2.671875 36.695313 4.617187 55.277344 5.757812l5.058594.3125c28.023437 1.585938 56.113281 1.585938 84.132812 0h1.113282l4.800781-.3125c20.617187-1.300781 41.167969-3.558594 60.976562-6.703125 4.183594-.632812 8.238281-1.335937 12.207031-2.109375 1.179688-.152344 2.351563-.363281 3.511719-.632812 22.078125-3.960938 43.828125-9.574219 65.066407-16.800782 3.539062-1.230468 7.007812-2.542968 10.398437-3.929687 9.648437-3.699219 19.042969-8.019531 28.128906-12.941406 3.878907-2.121094 8.738281-.691407 10.859375 3.1875 2.117188 3.878906.691406 8.742187-3.1875 10.859375-9.664062 5.21875-19.65625 9.800781-29.914062 13.71875-3.503906 1.433594-7.199219 2.839844-11.046875 4.167968-21.839844 7.460938-44.214844 13.261719-66.929688 17.351563-1.4375.351563-2.898437.617187-4.367187.800781-3.671875.730469-7.941406 1.464844-12.296875 2.121094-20.246094 3.199219-41.300781 5.542969-62.542969 6.878906l-5.34375.328125h-.992188c-13.359374.800781-27.679687 1.207031-42.160156 1.207031zm0 0" fill="#a25bcd"/><path d="m180.785156 184.914062c-6.246094-6.246093-6.246094-16.375 0-22.621093 3.03125-3.140625 2.988282-8.128907-.097656-11.214844s-8.074219-3.128906-11.214844-.097656c-12.492187 12.496093-12.492187 32.75 0 45.246093 3.140625 3.03125 8.128906 2.988282 11.214844-.097656 3.085938-3.085937 3.128906-8.074218.097656-11.214844zm0 0" fill="#2488ff"/><path d="m13.753906 311.945312c-3.136718-3.03125-8.128906-2.988281-11.214844.097657-3.085937 3.085937-3.128906 8.078125-.097656 11.214843l7.03125 7.035157c6.246094 6.246093 6.246094 16.375 0 22.621093l-7.03125 7.03125c-2.078125 2.011719-2.914062 4.984376-2.179687 7.78125.730469 2.796876 2.914062 4.980469 5.710937 5.714844 2.796875.730469 5.773438-.101562 7.78125-2.183594l7.03125-7.03125c12.492188-12.496093 12.492188-32.75 0-45.246093zm0 0" fill="#ed539d"/><path d="m151.296875 281.179688 8-16c1.976563-3.953126.371094-8.761719-3.582031-10.738282-3.953125-1.972656-8.761719-.367187-10.738282 3.585938l-8 16c-1.972656 3.953125-.367187 8.761718 3.585938 10.734375 3.953125 1.976562 8.761719.371093 10.734375-3.582031zm0 0" fill="#f072ae"/><path d="m469.753906 295.945312c-3.136718-3.03125-8.128906-2.988281-11.214844.097657-3.085937 3.085937-3.128906 8.078125-.097656 11.214843l8 8c3.140625 3.03125 8.128906 2.988282 11.214844-.097656 3.085938-3.085937 3.128906-8.074218.097656-11.214844zm0 0" fill="#7ed63e"/><path d="m157.777344 311.921875c-1.871094-1.9375-4.601563-2.789063-7.242188-2.253906-2.644531.535156-4.828125 2.378906-5.796875 4.894531-.851562 1.9375-.851562 4.144531 0 6.082031.40625.964844.976563 1.859375 1.679688 2.640625 3.15625 3.09375 8.207031 3.09375 11.359375 0 .707031-.78125 1.273437-1.675781 1.679687-2.640625.855469-1.9375.855469-4.144531 0-6.082031-.386719-.976562-.957031-1.875-1.679687-2.640625zm0 0" fill="#7ed63e"/><path d="m340.578125 358.964844c-.445313-.304688-.929687-.546875-1.441406-.722656-.453125-.230469-.9375-.390626-1.4375-.480469-2.359375-.5-4.816407.09375-6.683594 1.617187-1.863281 1.523438-2.9375 3.816406-2.917969 6.222656-.027344 1.050782.191406 2.09375.640625 3.042969.40625.964844.976563 1.859375 1.679688 2.640625.765625.722656 1.660156 1.292969 2.640625 1.679688 2.976562 1.273437 6.429687.609375 8.71875-1.679688.707031-.78125 1.273437-1.675781 1.679687-2.640625.410157-.964843.628907-1.996093.640625-3.042969-.011718-2.121093-.84375-4.15625-2.320312-5.679687-.378906-.339844-.78125-.660156-1.199219-.957031zm0 0" fill="#57a4ff"/><path d="m308.578125 182.964844c-.445313-.304688-.929687-.546875-1.441406-.722656-.476563-.242188-.992188-.40625-1.527344-.480469-2.609375-.519531-5.308594.289062-7.199219 2.160156-.722656.765625-1.292968 1.664063-1.679687 2.640625-.855469 1.9375-.855469 4.144531 0 6.082031.40625.964844.976562 1.859375 1.679687 2.640625 3.15625 3.09375 8.207032 3.09375 11.359375 0 .703125-.78125 1.273438-1.675781 1.679688-2.640625.855469-1.9375.855469-4.144531 0-6.082031-.386719-.976562-.957031-1.875-1.679688-2.640625-.378906-.339844-.777343-.660156-1.191406-.957031zm0 0" fill="#f072ae"/><path d="m412.578125 150.964844c-.445313-.304688-.929687-.546875-1.441406-.722656-.476563-.242188-.992188-.40625-1.527344-.480469-3.738281-.820313-7.511719 1.222656-8.871094 4.800781-1.425781 3.351562-.414062 7.242188 2.46875 9.464844 2.882813 2.226562 6.902344 2.226562 9.78125 0 2.882813-2.222656 3.898438-6.113282 2.46875-9.464844-.40625-.96875-.972656-1.859375-1.679687-2.640625-.378906-.339844-.78125-.660156-1.199219-.957031zm0 0" fill="#ffcd00"/><path d="m445.777344 423.921875c-.390625-.359375-.820313-.683594-1.277344-.957031-.410156-.316406-.871094-.5625-1.363281-.722656-.476563-.242188-.992188-.40625-1.527344-.480469-1.527344-.324219-3.121094-.15625-4.550781.480469-.980469.386718-1.875.957031-2.640625 1.679687-.707031.78125-1.273438 1.671875-1.679688 2.640625-1.425781 3.351562-.414062 7.242188 2.46875 9.464844 2.882813 2.226562 6.902344 2.226562 9.78125 0 2.882813-2.222656 3.898438-6.113282 2.46875-9.464844-.40625-.96875-.972656-1.859375-1.679687-2.640625zm0 0" fill="#ed1c24"/><path d="m189.777344 431.921875c-.777344-.703125-1.671875-1.269531-2.640625-1.679687-2.976563-1.25-6.417969-.589844-8.71875 1.679687-.707031.78125-1.273438 1.671875-1.679688 2.640625-.449219.949219-.667969 1.992188-.640625 3.039062-.019531 2.128907.816406 4.175782 2.320313 5.683594.796875.703125 1.683593 1.292969 2.640625 1.757813.96875.382812 2 .574219 3.039062.558593 2.128906.019532 4.175782-.816406 5.679688-2.316406 1.472656-1.527344 2.304687-3.5625 2.320312-5.683594-.011718-1.042968-.230468-2.078124-.640625-3.039062-.386719-.976562-.957031-1.875-1.679687-2.640625zm0 0" fill="#ff3051"/><path d="m61.777344 431.921875c-3.207032-2.957031-8.152344-2.957031-11.359375 0-.722657.765625-1.292969 1.664063-1.679688 2.640625-1.425781 3.351562-.414062 7.242188 2.46875 9.464844 2.882813 2.226562 6.902344 2.226562 9.78125 0 2.882813-2.222656 3.898438-6.113282 2.46875-9.464844-.386719-.976562-.957031-1.875-1.679687-2.640625zm0 0" fill="#ed1c24"/><path d="m29.777344 279.921875c-.378906-.339844-.78125-.660156-1.199219-.957031-.445313-.304688-.929687-.546875-1.441406-.722656-.453125-.230469-.9375-.390626-1.4375-.480469-2.636719-.523438-5.359375.285156-7.28125 2.160156-.722657.765625-1.292969 1.664063-1.679688 2.640625-.855469 1.9375-.855469 4.144531 0 6.082031.40625.964844.976563 1.859375 1.679688 2.640625 2.289062 2.289063 5.742187 2.953125 8.71875 1.679688.96875-.410156 1.863281-.976563 2.640625-1.679688.707031-.78125 1.273437-1.675781 1.679687-2.640625.855469-1.9375.855469-4.144531 0-6.082031-.386719-.976562-.957031-1.875-1.679687-2.640625zm0 0" fill="#ff3051"/><path d="m76.578125 150.964844c-.445313-.304688-.929687-.546875-1.441406-.722656-.476563-.242188-.992188-.40625-1.527344-.480469-2.605469-.484375-5.289063.320312-7.199219 2.160156-1.496094 1.511719-2.328125 3.554687-2.3125 5.679687-.039062 3.257813 1.902344 6.210938 4.90625 7.472657 3 1.261719 6.46875.574219 8.765625-1.734375s2.964844-5.78125 1.6875-8.777344c-.386719-.976562-.957031-1.875-1.679687-2.640625-.378906-.339844-.78125-.660156-1.199219-.957031zm0 0" fill="#7ed63e"/><path d="m13.753906 423.945312c-3.136718-3.03125-8.128906-2.988281-11.214844.097657-3.085937 3.085937-3.128906 8.078125-.097656 11.214843l8 8c2.007813 2.082032 4.984375 2.914063 7.78125 2.183594 2.796875-.734375 4.980469-2.917968 5.714844-5.714844.730469-2.796874-.105469-5.769531-2.183594-7.78125zm0 0" fill="#7ed63e"/><path d="m55.136719 192.722656c-4.492188-4.503906-10.59375-7.039062-16.957031-7.039062-6.367188 0-12.46875 2.535156-16.960938 7.039062-4.53125 4.496094-7.078125 10.617188-7.078125 17 0 6.382813 2.546875 12.503906 7.078125 17l50.878906 50.878906v-67.917968zm0 0" fill="#ffcd00"/><path d="m122.976562 192.722656c-4.492187-4.503906-10.59375-7.039062-16.957031-7.039062s-12.46875 2.535156-16.960937 7.039062l-16.960938 16.960938v67.917968l50.878906-50.878906c4.53125-4.496094 7.082032-10.617187 7.082032-17 0-6.382812-2.550782-12.503906-7.082032-17zm0 0" fill="#ffd217"/><path d="m192.097656 253.601562c0 26.511719 21.488282 80 48 80v-128c-26.507812 0-48 21.492188-48 48zm0 0" fill="#ff3051"/><path d="m240.097656 205.601562v128c26.511719 0 48-53.488281 48-80 0-26.507812-21.488281-48-48-48zm0 0" fill="#ff4361"/><path d="m391.136719 192.722656c-4.492188-4.503906-10.59375-7.039062-16.957031-7.039062-6.367188 0-12.46875 2.535156-16.960938 7.039062-4.53125 4.496094-7.078125 10.617188-7.078125 17 0 6.382813 2.546875 12.503906 7.078125 17l50.878906 50.878906v-67.917968zm0 0" fill="#ed539d"/><path d="m458.976562 192.722656c-4.492187-4.503906-10.59375-7.039062-16.957031-7.039062s-12.46875 2.535156-16.960937 7.039062l-16.960938 16.960938v67.917968l50.878906-50.878906c4.53125-4.496094 7.082032-10.617187 7.082032-17 0-6.382812-2.550782-12.503906-7.082032-17zm0 0" fill="#ef63a6"/></svg>