<svg height="512pt" viewBox="0 -36 512.00334 512" width="512pt" xmlns="http://www.w3.org/2000/svg"><path d="m468.101562 43.90625h-87.808593c-24.25 0-43.90625 19.65625-43.90625 43.902344v87.808594c0 14.546874 11.796875 26.34375 26.34375 26.34375v43.902343l61.464843-43.902343h43.90625c24.246094 0 43.902344-19.65625 43.902344-43.90625v-70.246094c0-24.246094-19.65625-43.902344-43.902344-43.902344zm0 0" fill="#99d8aa"/><path d="m362.730469 439.039062h-245.859375v-79.027343c0-29.09375 23.585937-52.683594 52.683594-52.683594h140.492187c29.097656 0 52.683594 23.589844 52.683594 52.683594zm0 0" fill="#34768b"/><path d="m336.386719 333.671875h52.6875v105.367187h-52.6875zm0 0" fill="#3b869e"/><path d="m432.976562 280.984375v8.78125c0 24.25-19.65625 43.90625-43.902343 43.90625h-52.6875v-26.34375c0-14.546875 11.796875-26.34375 26.34375-26.34375zm0 0" fill="#fdc9a6"/><path d="m239.800781 439.039062h-87.808593v-35.121093h70.246093c9.699219 0 17.5625 7.859375 17.5625 17.558593zm0 0" fill="#b9b9b9"/><path d="m437.832031 119.929688-19.40625-9.703126c-2.683593-1.332031-3.777343-4.589843-2.445312-7.273437.527343-1.0625 1.386719-1.921875 2.445312-2.445313l3.347657-1.671874c1.527343-.753907 3.320312-.753907 4.847656 0l11.210937 5.613281c4.339844 2.167969 9.617188.40625 11.785157-3.933594 2.167968-4.339844.40625-9.617187-3.933594-11.785156l-11.207032-5.601563c-.480468-.246094-1.007812-.34375-1.5-.542968v-3.558594c0-4.847656-3.929687-8.78125-8.78125-8.78125-4.847656 0-8.78125 3.933594-8.78125 8.78125v3.566406c-.5.203125-1.027343.296875-1.507812.542969l-3.355469 1.667969c-11.359375 5.6875-15.957031 19.503906-10.269531 30.859374 2.222656 4.445313 5.824219 8.046876 10.269531 10.273438l19.40625 9.699219c2.683594 1.335937 3.777344 4.589843 2.445313 7.277343-.527344 1.058594-1.386719 1.917969-2.445313 2.445313l-3.347656 1.667969c-1.527344.753906-3.320313.753906-4.847656 0l-11.210938-5.609375c-4.339843-2.167969-9.617187-.40625-11.785156 3.933593-2.167969 4.339844-.40625 9.613282 3.933594 11.78125l11.207031 5.601563c.480469.246094 1.007812.335937 1.5.546875v3.554688c0 4.851562 3.929688 8.78125 8.78125 8.78125 4.847656 0 8.78125-3.929688 8.78125-8.78125v-3.5625c.5-.203126 1.027344-.300782 1.507812-.546876l3.355469-1.667968c11.359375-5.683594 15.957031-19.5 10.273438-30.859375-2.226563-4.441407-5.828125-8.046875-10.273438-10.269531zm0 0" fill="#55785f"/><path d="m362.730469 114.152344h17.5625v17.5625h-17.5625zm0 0" fill="#55785f"/><path d="m468.101562 114.152344h17.558594v17.5625h-17.558594zm0 0" fill="#55785f"/><path d="m77.882812 149.273438c-9.699218 0-17.5625-7.859376-17.5625-17.558594v-26.34375h35.125v26.34375c0 9.695312-7.863281 17.558594-17.5625 17.558594zm0 0" fill="#a8a8a8"/><path d="m77.882812 43.90625c19.398438 0 35.125 15.722656 35.125 35.121094 0 19.398437-15.726562 35.125-35.125 35.125-19.398437 0-35.125-15.726563-35.125-35.125 0-19.398438 15.726563-35.121094 35.125-35.121094zm0 0" fill="#f7ba61"/><g fill="#fbedbf"><path d="m69.101562 0h17.5625v17.5625h-17.5625zm0 0"/><path d="m24.328125 20.257812 14.199219-10.320312 10.324218 14.207031-14.199218 10.320313zm0 0"/><path d="m0 62.964844 5.429688-16.699219 16.699218 5.429687-5.429687 16.699219zm0 0"/><path d="m.00390625 95.09375 16.70703175-5.417969 5.417968 16.703125-16.703125 5.421875zm0 0"/><path d="m133.621094 106.386719 5.425781-16.703125 16.703125 5.429687-5.429688 16.699219zm0 0"/><path d="m133.628906 51.683594 16.703125-5.417969 5.417969 16.703125-16.703125 5.421875zm0 0"/><path d="m106.910156 24.140625 10.328125-14.203125 14.199219 10.324219-10.328125 14.203125zm0 0"/></g><path d="m2.71875 298.546875h158.054688v140.492187h-158.054688zm0 0" fill="#cdcdcd"/><path d="m90.527344 360.011719c0 9.699219-7.863282 17.5625-17.5625 17.5625-9.699219 0-17.5625-7.863281-17.5625-17.5625s7.863281-17.558594 17.5625-17.558594c9.699218 0 17.5625 7.859375 17.5625 17.558594zm0 0" fill="#b3e4e8"/><path d="m231.019531 351.230469h17.5625v87.808593h-17.5625zm0 0" fill="#3b869e"/><path d="m266.140625 386.355469h43.90625v17.5625h-43.90625zm0 0" fill="#3b869e"/><path d="m213.457031 307.328125-17.5625 35.125 43.90625 17.558594zm0 0" fill="#3b869e"/><path d="m266.140625 307.328125 17.5625 35.125-43.902344 17.558594zm0 0" fill="#3b869e"/><path d="m213.457031 307.328125 26.34375 52.683594 26.339844-52.683594h-8.777344v-8.78125h-35.125v8.78125zm0 0" fill="#d9d9d9"/><path d="m222.238281 263.425781h35.125v43.902344h-35.125zm0 0" fill="#f6bb92"/><path d="m292.484375 149.273438-8.78125 8.78125h-87.808594l-8.777343-8.78125v-2.746094c0-27.578125 22.355468-49.9375 49.933593-49.9375h64.214844zm0 0" fill="#a45e14"/><path d="m239.800781 272.207031c-29.097656 0-52.683593-23.589843-52.683593-52.6875v-70.246093h105.367187v70.246093c0 29.097657-23.585937 52.6875-52.683594 52.6875zm0 0" fill="#fdc9a6"/><path d="m187.117188 184.398438h35.121093v35.121093h-35.121093zm0 0" fill="#b3e4e8"/><path d="m257.363281 184.398438h35.121094v35.121093h-35.121094zm0 0" fill="#b3e4e8"/><path d="m292.484375 175.617188h-114.148437v52.683593h52.683593v-35.121093h17.5625v35.121093h52.683594v-52.683593zm-79.027344 35.121093h-17.5625v-17.558593h17.5625zm70.246094 0h-17.5625v-17.558593h17.5625zm0 0" fill="#60a0aa"/></svg>